<mxfile host="Electron" modified="2024-04-21T12:57:18.884Z" agent="Mozilla/5.0 (Macintosh; Intel Mac OS X 10_15_7) AppleWebKit/537.36 (KHTML, like Gecko) draw.io/23.1.5 Chrome/120.0.6099.109 Electron/28.1.0 Safari/537.36" etag="_fYTFLDNK-4o8YcVfxwX" version="23.1.5" type="device">
  <diagram name="第 1 页" id="CVDgSvm3yNosJ1XPAO18">
    <mxGraphModel dx="976" dy="813" grid="1" gridSize="10" guides="1" tooltips="1" connect="0" arrows="1" fold="1" page="1" pageScale="1" pageWidth="827" pageHeight="1169" math="0" shadow="0">
      <root>
        <mxCell id="0" />
        <mxCell id="1" parent="0" />
        <mxCell id="cNab6fIGtmJAdsuhJbX7-2" value="&lt;font style=&quot;font-size: 18px;&quot;&gt;WAL Buffer&lt;/font&gt;" style="rounded=0;whiteSpace=wrap;html=1;fontSize=18;fillColor=#dae8fc;strokeColor=#6c8ebf;" vertex="1" parent="1">
          <mxGeometry x="200" y="290" width="320" height="50" as="geometry" />
        </mxCell>
        <mxCell id="cNab6fIGtmJAdsuhJbX7-3" value="&lt;font style=&quot;font-size: 18px;&quot;&gt;上层应用&lt;/font&gt;" style="rounded=1;whiteSpace=wrap;html=1;fontSize=18;fillColor=#ffe6cc;strokeColor=#d79b00;" vertex="1" parent="1">
          <mxGeometry x="200" y="190" width="320" height="60" as="geometry" />
        </mxCell>
        <mxCell id="cNab6fIGtmJAdsuhJbX7-4" value="" style="endArrow=classic;html=1;rounded=0;" edge="1" parent="1">
          <mxGeometry width="50" height="50" relative="1" as="geometry">
            <mxPoint x="320" y="250" as="sourcePoint" />
            <mxPoint x="320" y="290" as="targetPoint" />
          </mxGeometry>
        </mxCell>
        <mxCell id="cNab6fIGtmJAdsuhJbX7-5" value="" style="endArrow=classic;html=1;rounded=0;exitX=0.625;exitY=0.005;exitDx=0;exitDy=0;exitPerimeter=0;entryX=0.624;entryY=1.009;entryDx=0;entryDy=0;entryPerimeter=0;" edge="1" parent="1" source="cNab6fIGtmJAdsuhJbX7-2" target="cNab6fIGtmJAdsuhJbX7-3">
          <mxGeometry width="50" height="50" relative="1" as="geometry">
            <mxPoint x="280" y="260" as="sourcePoint" />
            <mxPoint x="280" y="300" as="targetPoint" />
          </mxGeometry>
        </mxCell>
        <mxCell id="cNab6fIGtmJAdsuhJbX7-6" value="写" style="text;html=1;align=center;verticalAlign=middle;resizable=0;points=[];autosize=1;strokeColor=none;fillColor=none;" vertex="1" parent="1">
          <mxGeometry x="270" y="250" width="40" height="30" as="geometry" />
        </mxCell>
        <mxCell id="cNab6fIGtmJAdsuhJbX7-7" value="读" style="text;html=1;align=center;verticalAlign=middle;resizable=0;points=[];autosize=1;strokeColor=none;fillColor=none;" vertex="1" parent="1">
          <mxGeometry x="400" y="250" width="40" height="30" as="geometry" />
        </mxCell>
        <mxCell id="cNab6fIGtmJAdsuhJbX7-9" value="WAL Writer" style="rounded=0;whiteSpace=wrap;html=1;fillColor=#b1ddf0;strokeColor=#10739e;" vertex="1" parent="1">
          <mxGeometry x="220" y="420" width="120" height="50" as="geometry" />
        </mxCell>
        <mxCell id="cNab6fIGtmJAdsuhJbX7-10" style="edgeStyle=orthogonalEdgeStyle;rounded=0;orthogonalLoop=1;jettySize=auto;html=1;endArrow=none;endFill=0;startArrow=classic;startFill=1;" edge="1" parent="1" source="cNab6fIGtmJAdsuhJbX7-9">
          <mxGeometry relative="1" as="geometry">
            <mxPoint x="280" y="340" as="targetPoint" />
          </mxGeometry>
        </mxCell>
        <mxCell id="cNab6fIGtmJAdsuhJbX7-11" value="WAL Reader" style="rounded=0;whiteSpace=wrap;html=1;fillColor=#b0e3e6;strokeColor=#0e8088;" vertex="1" parent="1">
          <mxGeometry x="380" y="420" width="120" height="50" as="geometry" />
        </mxCell>
        <mxCell id="cNab6fIGtmJAdsuhJbX7-12" style="edgeStyle=orthogonalEdgeStyle;rounded=0;orthogonalLoop=1;jettySize=auto;html=1;" edge="1" parent="1" source="cNab6fIGtmJAdsuhJbX7-11">
          <mxGeometry relative="1" as="geometry">
            <mxPoint x="440" y="340" as="targetPoint" />
          </mxGeometry>
        </mxCell>
        <mxCell id="cNab6fIGtmJAdsuhJbX7-14" value="WAL 文件" style="shape=parallelogram;perimeter=parallelogramPerimeter;whiteSpace=wrap;html=1;fixedSize=1;fillColor=#d0cee2;strokeColor=#56517e;" vertex="1" parent="1">
          <mxGeometry x="250" y="540" width="230" height="60" as="geometry" />
        </mxCell>
        <mxCell id="cNab6fIGtmJAdsuhJbX7-15" style="edgeStyle=orthogonalEdgeStyle;rounded=0;orthogonalLoop=1;jettySize=auto;html=1;entryX=0.131;entryY=-0.019;entryDx=0;entryDy=0;entryPerimeter=0;" edge="1" parent="1" source="cNab6fIGtmJAdsuhJbX7-9" target="cNab6fIGtmJAdsuhJbX7-14">
          <mxGeometry relative="1" as="geometry" />
        </mxCell>
        <mxCell id="cNab6fIGtmJAdsuhJbX7-16" style="edgeStyle=orthogonalEdgeStyle;rounded=0;orthogonalLoop=1;jettySize=auto;html=1;entryX=0.823;entryY=-0.011;entryDx=0;entryDy=0;entryPerimeter=0;endArrow=none;endFill=0;startArrow=classic;startFill=1;" edge="1" parent="1" source="cNab6fIGtmJAdsuhJbX7-11" target="cNab6fIGtmJAdsuhJbX7-14">
          <mxGeometry relative="1" as="geometry">
            <mxPoint x="440" y="530" as="targetPoint" />
          </mxGeometry>
        </mxCell>
        <mxCell id="cNab6fIGtmJAdsuhJbX7-17" value="&lt;font style=&quot;font-size: 15px;&quot;&gt;压缩&lt;/font&gt;" style="text;html=1;align=center;verticalAlign=middle;resizable=0;points=[];autosize=1;strokeColor=none;fillColor=none;fontSize=15;" vertex="1" parent="1">
          <mxGeometry x="210" y="490" width="50" height="30" as="geometry" />
        </mxCell>
        <mxCell id="cNab6fIGtmJAdsuhJbX7-18" value="&lt;font style=&quot;font-size: 15px;&quot;&gt;解压缩&lt;/font&gt;" style="text;html=1;align=center;verticalAlign=middle;resizable=0;points=[];autosize=1;strokeColor=none;fillColor=none;fontSize=15;" vertex="1" parent="1">
          <mxGeometry x="460" y="490" width="70" height="30" as="geometry" />
        </mxCell>
      </root>
    </mxGraphModel>
  </diagram>
</mxfile>
